<svg width="16" height="16" viewBox="0 0 16 16" fill="none" xmlns="http://www.w3.org/2000/svg">
<rect width="16" height="16" rx="8" fill="black"/>
<path fill-rule="evenodd" clip-rule="evenodd" d="M4.93658 10.2051C4.9667 10.172 5.00338 10.1456 5.0443 10.1274C5.08518 10.1093 5.12946 10.1 5.17418 10.0999L12.5054 10.1059C12.5366 10.106 12.5671 10.1151 12.5933 10.1322C12.6194 10.1493 12.64 10.1736 12.6526 10.2022C12.6652 10.2307 12.6692 10.2624 12.6641 10.2932C12.6591 10.324 12.6452 10.3526 12.6242 10.3757L11.063 12.0947C11.0329 12.1278 10.9961 12.1543 10.9552 12.1724C10.9143 12.1906 10.87 12.1999 10.8252 12.1999L3.49419 12.1939C3.46297 12.1938 3.43243 12.1847 3.4063 12.1676C3.38017 12.1506 3.35956 12.1262 3.34698 12.0977C3.3344 12.0691 3.33039 12.0375 3.33543 12.0067C3.34047 11.9759 3.35435 11.9472 3.37539 11.9241L4.93658 10.2051ZM12.6242 8.77413C12.6452 8.79721 12.6591 8.82589 12.6641 8.85669C12.6692 8.88749 12.6652 8.91913 12.6526 8.94769C12.64 8.97625 12.6194 9.00057 12.5933 9.01765C12.5671 9.03473 12.5366 9.04385 12.5054 9.04393L5.17438 9.04993C5.12962 9.04993 5.08534 9.04057 5.04438 9.02245C5.00342 9.00433 4.9667 8.97785 4.93658 8.94473L3.37539 7.22473C3.35435 7.20165 3.34047 7.17297 3.33543 7.14217C3.33039 7.11137 3.3344 7.07973 3.34698 7.05117C3.35956 7.02261 3.38017 6.99829 3.4063 6.98121C3.43243 6.96413 3.46297 6.95501 3.49419 6.95493L10.8254 6.94893C10.8701 6.94897 10.9144 6.95833 10.9553 6.97645C10.9962 6.99457 11.0329 7.02101 11.063 7.05413L12.6242 8.77413ZM4.93658 3.90513C4.9667 3.87202 5.00338 3.84556 5.0443 3.82744C5.08518 3.80933 5.12946 3.79995 5.17418 3.79993L12.5054 3.80593C12.5366 3.80599 12.5671 3.81512 12.5933 3.8322C12.6194 3.84929 12.64 3.87359 12.6526 3.90216C12.6652 3.93074 12.6692 3.96235 12.6641 3.99316C12.6591 4.02397 12.6452 4.05265 12.6242 4.07573L11.063 5.79473C11.0329 5.82785 10.9961 5.85433 10.9552 5.87245C10.9143 5.89057 10.87 5.89993 10.8252 5.89993L3.49419 5.89393C3.46297 5.89385 3.43243 5.88473 3.4063 5.86765C3.38017 5.85057 3.35956 5.82625 3.34698 5.79769C3.3344 5.76913 3.33039 5.73749 3.33543 5.70669C3.34047 5.67589 3.35435 5.64721 3.37539 5.62413L4.93658 3.90513Z" fill="url(#paint0_linear_5459_171)"/>
<defs>
<linearGradient id="paint0_linear_5459_171" x1="3.61659" y1="12.3831" x2="12.383" y2="3.61673" gradientUnits="userSpaceOnUse">
<stop stop-color="#9945FF"/>
<stop offset="0.2" stop-color="#7962E7"/>
<stop offset="1" stop-color="#00D18C"/>
</linearGradient>
</defs>
</svg>
